<?xml version="1.0" encoding="utf-8"?>
<!-- Generator: Adobe Illustrator 22.0.1, SVG Export Plug-In . SVG Version: 6.00 Build 0)  -->
<svg version="1.1" id="Layer_1" xmlns="http://www.w3.org/2000/svg" xmlns:xlink="http://www.w3.org/1999/xlink" x="0px" y="0px"
	 viewBox="0 0 241 284" style="enable-background:new 0 0 241 284;" xml:space="preserve">
<style type="text/css">
	.st0{fill:#636363;}
	.st1{fill:#7C3C73;}
	.st2{fill:#972E2E;}
	.st3{fill:#33A258;}
	.st4{fill:#42A494;}
	.st5{fill:#DB653E;}
	.st6{fill:#2F84BA;}
	.st7{fill:#32A3DD;}
	.st8{fill:#7EA746;}
	.st9{fill:#666666;}
	.st10{fill:#9B3738;}
	.st11{fill:#6F3767;}
	.st12{fill:#585858;}
	.st13{fill:#D9A827;}
	.st14{fill:#3B8D7F;}
	.st15{fill:#622F5A;}
	.st16{fill:#278346;}
	.st17{fill:#6F943E;}
	.st18{fill:#8A2929;}
	.st19{fill:#953F46;}
	.st20{fill:#B34A56;}
	.st21{fill:#2E9250;}
	.st22{fill:#B18921;}
	.st23{fill:#3C9788;}
	.st24{fill:#6A8A3F;}
	.st25{fill:#2C95CC;}
	.st26{fill:#C96673;}
	.st27{fill:#7F2727;}
	.st28{fill:#C49926;}
</style>
<g>
	<g>
		<path class="st0" d="M120.2,217.1c-0.3,9.3-1.1,18.7-3.7,27.5c-1.6,5.6-0.7,11.3-3,16.7c-2.3,5.4-3.7,11.2-5.5,16.8
			c-0.3,0-0.7,0-1,0c-1.4-7.4-0.5-14.6,0.1-22c1-12.5,3.6-24.7,5.8-36.9c0.4-2.1,1-4.2,1.4-6.3C117.1,213.2,119.1,214.5,120.2,217.1
			z"/>
		<path class="st1" d="M129.2,101c3.2-28.9,5.8-58,20.2-84.4c3.2,28.8-2.3,56.6-8.3,84.4c-2.7,2.3-5.3,4.6-8.3,0.3
			C131.7,99.8,130.4,101,129.2,101z"/>
		<path class="st2" d="M93.9,119.2C79.2,93.7,65,68,57.2,39.3C76.3,61.8,87.8,88.6,99.8,115C97.4,115.8,95.2,117,93.9,119.2z"/>
		<path class="st3" d="M163,211.1c16.4,17.3,32.6,34.7,41.9,57.2c-21.3-13.6-36.2-33.4-50.9-53.3c2.5-1.6,4.3-5,8.1-2.8
			C162.2,212.2,162.7,211.5,163,211.1z"/>
		<path class="st4" d="M86.9,133.2C68.4,113.5,50,93.7,36.8,69.1c3.9,0.3,6,2.7,8.3,4.6c12.3,10.3,22.5,22.6,32.5,35
			c4.6,5.7,8.9,11.6,13.3,17.3C90.2,128.7,86.8,130,86.9,133.2z"/>
		<path class="st5" d="M118.1,193c-3.5,3.8-4.4,9-7.1,13.2c-1.8,2.7-2.5,6.5-6.4,8c1.2-8.2,4-15.6,6.7-23.1
			c-14,15.8-25.9,33.7-44.5,44.7c3.3-6.9,8.4-12.4,13.4-18.1c9.6-11,19.8-21.5,30.1-32c1.2-1.2,3.8-2,2.4-4.7c0,0,0-0.1,0-0.1
			c2.6,1.7,2.7-1.4,4.1-2.1c1.6-1.3,2.8-2.9,3.6-4.8c1.3-0.1,2.6-0.2,3.8-0.3c0,0.3,0,0.7,0,1c-0.3,0.3-0.6,0.7-0.9,1
			c-0.1,0.3-0.2,0.6-0.1,0.9c-3,3.8-1.3,9.1-4,13C117.9,190.7,117.1,191.6,118.1,193L118.1,193z"/>
		<path class="st6" d="M124,173.9c-1.3,0.1-2.6,0.2-3.8,0.3c0,0-0.3-0.3-0.3-0.3c0-1.5-0.4-2.6-2.3-2.1c-1.9,0.5-3.8,0.9-5.7,1.4
			c-14.3-0.6-28.6,1.7-42.9,0.5c-6.4-0.5-12.9-0.5-20.1-4.5c20.9-5.4,40.4-1.4,60.1,0c-8.4-3.6-17.7-4.9-26.1-10.2
			c4.3-1.9,7.9-0.4,11.5,0.5c4,0.9,7.7,3.2,11.8,3.6c5.9,1.1,9.9,6.7,16.1,6.9c0.2,0.1,0.5,0.1,0.7,0.2c0,0.8,0.2,1.5,1,1.8
			C124,172.6,124,173.3,124,173.9L124,173.9z"/>
		<path class="st7" d="M88.2,198.5c-14.5,10.9-29.5,21-46.3,28.2c-2.6,1.1-5.9,3.1-8.1,1c-0.8-0.8,2.9-4.1,4.9-5.9
			c13.5-12.3,29.1-21.5,45.2-29.8C84,195,87.4,195.9,88.2,198.5z"/>
		<path class="st8" d="M154.9,130.9c12.7-15.9,26-31.2,43.9-41.8c-8.7,18.8-22.9,33.2-37.6,47.2C159.6,133.9,158,131.5,154.9,130.9z
			"/>
		<path class="st4" d="M89.5,152.2c-16.2-9.1-31.9-18.8-43.3-33.9c18.7,6.1,33.8,17.8,48.9,29.7C93.2,149.4,91.4,150.8,89.5,152.2z"
			/>
		<path class="st9" d="M132.1,211c1.4,4.6,2.3,9.2,1.7,14.1c-0.2,1.7,1.6,3.5,1.9,5.4c1.6,11.1,2.7,22.2,2.2,33.4
			c0,0.6,0,1.4-1.6,1.8c-8-18.1-8.9-37.4-10.2-56.7C128,209.7,129.2,213,132.1,211z"/>
		<path class="st10" d="M118,124.1c-2.1-12.8-2.7-25.7-3.2-38.6c-0.2-6.1-0.8-12.2,0.2-18.5c3.7,5.7,8,40.5,7.9,63.1
			C121.1,128.1,120.6,125.2,118,124.1z"/>
		<path class="st11" d="M129.2,101c1.2,0,2.6-1.2,3.6,0.3c2.9,4.3,5.6,2,8.3-0.3c-1.5,9.9-3.9,19.5-6.4,29.2
			c-3.3-0.6-4.8,3.9-8.2,2.9C127.3,122.4,128.3,111.7,129.2,101z"/>
		<path class="st12" d="M132.1,211c-2.9,2-4-1.3-6-2c-1.1-5.8-1-11.6-1.2-17.4c0-0.7,0-1.4,0-2.1c-0.1-0.8-0.2-1.7-0.3-2.5
			c0.4-1.9,1-3.8-1.4-6.3c0,2.8,0,4.4,0,6c-0.7,10.2-1.3,20.3-3,30.4c-1.1-2.6-3.1-3.9-5.8-4.3c0.8-6.7,3.6-13,3.7-19.8
			c0,0,0,0.1,0,0.1c1.6-0.7,0.8-2,0.9-3.1c2.7-3.9,1-9.2,4-13c-0.2,2.4,0.5,3.5,3,2.1c1.6,3.4,2.5,7.1,3,10.8
			c-0.6,5.6,2,10.8,2.4,16.2C131.6,207.7,131.9,209.3,132.1,211z"/>
		<path class="st3" d="M141,202.1c6.5,12,11.5,24.5,13.4,38.2c-9.4-9.7-13.9-22-18.3-34.3C139.6,207.1,141,205.6,141,202.1z"/>
		<path class="st13" d="M159.1,190.9c10.4,5.7,20.3,12,27.6,21.8c-12.7-3.7-23.7-10.6-34-18.6C155.4,194.2,156.4,190.9,159.1,190.9z
			"/>
		<path class="st14" d="M122.2,169.9c-6.3-0.2-10.3-5.8-16.1-6.9c-0.4-0.6-0.8-1.3-1.1-1.9c0.8-1.7-1.9-3.5,0.2-5.2
			c1.1,0.7,2.2,1.4,3.2,2.1c-2.1-5.5-7.3-8.4-10.3-13c2.6,0.6,2.6-3,4.8-3c2.9,2.2,3.6,6.4,7.2,8c0,0-0.1,0-0.1,0
			c-0.1,0.8-0.2,1.6,1,1l0,0c-1,1.4,0,1.8,1.1,2.1c2.3,3.3,4.5,6.7,6.8,10c0.1,1.4,0.8,2.4,2,3C121.4,167.3,121.8,168.6,122.2,169.9
			z"/>
		<path class="st15" d="M126.4,133c3.4,1.1,4.9-3.5,8.2-2.9c-1.8,7-3.6,14-5.4,20.9c-0.2,0.9-0.2,1.6,0.7,2.1
			c-0.5,0.5-1.6,1.1-1.5,1.6c0.2,1.3,1.2,0.3,1.8,0.3c0.9,0,1.9,0,2.8-0.1c-0.3,0.7-0.7,1.3-1,2c-0.4,0.7-0.8,1.3-1.3,2
			c-0.5,0.6,0.5,1.6-0.7,2c-1.4,0.7-1.1,1.9-1.1,3.1c-1.5,1.8-3.2,3.5-3,6.2c0,0.5,0,1,0,1.5c-0.7,0.1-1.3,0.1-2,0.2
			c-0.8-0.3-1-1-1-1.8c2.1-4.9,2.2-10,2-15.2c-0.3-6.4,0.5-12.6,1.3-18.9c0.1-0.1,0.3-0.2,0.3-0.2c0-0.2-0.1-0.5-0.2-0.7
			C126.4,134.4,126.4,133.7,126.4,133z M128.8,158.9c-0.3-0.1-0.6-0.3-0.8-0.2c-0.2,0.1-0.3,0.5-0.5,0.7c0.3,0.1,0.6,0.3,0.8,0.3
			C128.6,159.6,128.7,159.2,128.8,158.9z"/>
		<path class="st16" d="M129,189.9c-0.5-3.7-1.4-7.4-3-10.8c0-1.1,0.2-2.3-0.9-3.1c-0.4-0.3-0.7-0.6-1.1-0.9c0-0.3,0-0.7,0-1
			c0,0-0.1,0.1-0.1,0.1c4.9,0.2,6.5,5.1,10.1,7.2c0.8,0.9,1.1,2.6,2.9,1.9l-0.1-0.1c-0.4,1.1,0,1.4,1.1,1.1l-0.1-0.1
			c1,4.1,5.3,5.4,7.2,8.8c0.4,0.4,0.7,0.8,1.1,1.1c0,0-0.1-0.1-0.1-0.1c0.4,0.4,0.7,0.7,1.1,1.1c0,0-0.1-0.1-0.1-0.1
			c0.4,0.4,0.7,0.7,1.1,1.1c0,0-0.1-0.1-0.1-0.1c0.2,3.1-1,4.9-4.2,5.2c0,0,0,0,0,0c-0.3-0.4-0.6-0.8-0.9-1.1c-1.7-1-1.7-3.7-4.1-4
			c0,0,0.1,0.1,0.1,0.1c0.6-1.2-0.3-1.6-1.1-2.1c-1.4-4-3.5-6.3-8-3.9C129.6,190,129.3,190,129,189.9z"/>
		<path class="st8" d="M152,151.3c9.3-6.8,18.8-13.2,30.5-15.4c-8.1,8.8-18.2,14.6-28.6,19.9C154.3,153.9,153.2,152.6,152,151.3z"/>
		<path class="st17" d="M154.9,130.9c3.2,0.5,4.7,3,6.3,5.4c-5.3,6-11,11.5-17.1,16.7c-1.2-1.3-2.9-2.2-3.1-4.3
			C145,142.4,149.9,136.6,154.9,130.9z"/>
		<path class="st13" d="M156.1,178.8c11.1,2.2,21.7,5.5,31.4,11.8c-12.6,0.4-24.1-4-35.5-8.4C152.5,180.1,154.5,179.7,156.1,178.8z"
			/>
		<path class="st18" d="M93.9,119.2c1.4-2.3,3.5-3.4,5.9-4.2c3.4,7.7,6.7,15.4,10.1,23c-1.4,0.7-2.4,2.2-4.2,2.1
			C101.3,133.4,97.4,126.5,93.9,119.2z"/>
		<path class="st19" d="M126,171.7c0-0.5,0-1,0-1.5c4.3-2.8,10-2.7,14-6.3c0.6-0.1,1.2-0.3,1.8-0.4c4-1.2,7.9-2.5,11.9-3.7
			c1.6,0.8,2.8,1.9,3.5,3.6c-7.9,2-15.8,4.1-25.1,6.5c4.6,0,7.7,0,10.8,0c0.4,0,0.8,0,1.1,0c1.6-0.1,3.3-0.1,4.9-0.2
			c-0.3,3.1-2.7,3.2-5,3.4c-3,0-5.9,0.1-8.9,0.1C132.2,171.6,128.8,173.8,126,171.7z"/>
		<path class="st1" d="M133,155c-0.9,0-1.9,0.1-2.8,0.1c-0.6,0-1.6,1-1.8-0.3c-0.1-0.5,1-1.1,1.5-1.6c3.3-4.4,4.4-9.9,6.9-14.7
			c3-6,5.6-12.3,10.9-17C145.4,133.7,139.3,144.4,133,155z"/>
		<path class="st20" d="M157.2,163.4c-0.7-1.7-1.9-2.8-3.5-3.6c11.2-4.1,22.6-7,34.7-6.3C178.6,158.5,167.9,160.9,157.2,163.4z"/>
		<path class="st21" d="M143.9,201.1c3.2-0.3,4.5-2.1,4.2-5.2c5.4,4.7,10.2,9.9,14.8,15.3c-0.3,0.4-0.8,1.1-0.9,1.1
			c-3.8-2.2-5.7,1.2-8.1,2.8C150.3,210.6,146.8,206.1,143.9,201.1z"/>
		<path class="st22" d="M126,171.7c2.8,2.1,6.3-0.1,9.1,1.4c3.6,1,7.2,2,10.8,3.1c-0.7,1.1-1,2.7-2.8,2.7c-1.9,0.1-3.5-1.9-5.9-0.2
			c2.3-0.2,3.4,2.6,5.7,1.3l0,0c0.3,3,3.6,2.5,5.1,4.3c0.2,2.7-1.7,3.4-3.8,3.7c-2.4-0.9-3.5-3.7-6.3-3.9l0.1,0.1
			c0.1-0.8-0.5-1-1.1-1.1c0,0,0.1,0.1,0.1,0.1c-0.5-1.4-1.6-1.8-2.9-1.9c-3.6-2-5.2-7-10.1-7.2c0-0.7,0-1.4,0-2.1
			C124.6,171.9,125.3,171.8,126,171.7z"/>
		<path class="st10" d="M115,144c-3.2-9.2-5.4-18.6-6-29.4c3.7,3.3,4.4,7.1,5.9,10.4c1.1,2.3,0.7,5.3,3.1,7c0.4,2.8,2.7,5,2,8l0,0
			C117.7,140.5,116.8,142.9,115,144z"/>
		<path class="st23" d="M103,142c-2.2,0-2.2,3.6-4.8,3c-4.2-3.5-7.7-7.7-11.2-11.8c-0.1-3.2,3.3-4.4,4-7.2
			C95.3,131.1,99.3,136.4,103,142z"/>
		<path class="st24" d="M140,163.9c-4,3.6-9.7,3.5-14,6.3c-0.2-2.6,1.5-4.3,3-6.2c1.2-0.7,0.9-2,1.1-3.1c1.1-0.4,0.2-1.4,0.7-2
			c0.2,0.1,0.4,0.1,0.7,0.2c4.6-2.2,5.8-7.5,9.5-10.4c0.2,2,1.9,2.9,3.1,4.3c-0.4,2.1-4,2.2-3,5.1c0,0,0.1-0.1,0.1-0.1
			c-2-1-2.7,0.8-3.5,1.9c-0.5,0.6,0.6,0.8,1.2,1C140,161.5,140,162.7,140,163.9z"/>
		<path class="st25" d="M88.2,198.5c-0.7-2.6-4.1-3.5-4.2-6.6c5-3.2,10.3-6,15.8-8.4c0.6,1.7,2.4,2.8,2.4,4.8
			C97.7,192,93,195.4,88.2,198.5z"/>
		<path class="st26" d="M144,173.1c2.3-0.2,4.7-0.2,5-3.4c7.9-0.9,15.7-0.6,23.5,0.8C163.3,175,153.7,174.2,144,173.1z"/>
		<path class="st21" d="M130,190c4.5-2.4,6.7-0.1,8,3.9c-0.4,1.1-0.4,2,1.1,2.1c0,0-0.1-0.1-0.1-0.1c-0.6,2.4,2,3.9,2,6.1
			c0.1,3.5-1.4,5-4.9,3.9C134,200.7,132,195.3,130,190z"/>
		<path class="st18" d="M115,144c1.8-1.1,2.7-3.5,5-4c1.2,4.9,0.5,10,1.5,15c0.7,3.4,2.6,7.6-0.6,11.1c-1.2-0.6-1.9-1.7-2-3
			c1.2-1.1,2-2.8,0.9-3.8c-2.9-2.5-3.1-6.2-4.8-9.2c2.1-1,1.2-2.1,0-3.1l0.1,0.1C115.1,146,115,145,115,144z"/>
		<path class="st27" d="M115,150c1.7,3,2,6.7,4.8,9.2c1.1,1,0.3,2.7-0.9,3.8c-2.3-3.3-4.5-6.7-6.8-10c-0.4-0.7,0.3-1.9-1.1-2.1
			c0,0,0,0,0,0c0-0.7,0.2-1.6-1-1c0,0,0.1,0,0.1,0c0-4-3.6-6.3-4.4-9.9c1.8,0.1,2.8-1.4,4.2-2.1c2.2,2.7,1.8,6.9,5.2,9
			c0,0-0.1-0.1-0.1-0.1C113.5,148,115.4,149,115,150z"/>
		<path class="st23" d="M105.2,155.9c-2.2,1.6,0.5,3.5-0.2,5.2c-5.4-2.5-10.6-5.4-15.4-8.9c1.8-1.4,3.7-2.8,5.5-4.2
			C98.5,150.6,101.8,153.2,105.2,155.9z"/>
		<path class="st27" d="M121,166c3.2-3.5,1.2-7.7,0.6-11.1c-1-5-0.4-10.1-1.5-15c0,0,0,0,0,0c1,0,2,0,3,0c0.3,3.9,0.5,7.7,0.9,11.6
			c0.1,1.1-0.8,2.7,1,3.3c0.2,5.2,0.1,10.3-2,15.2c-0.2-0.1-0.5-0.2-0.7-0.2C121.8,168.6,121.4,167.3,121,166z"/>
		<path class="st6" d="M102.1,188.3c0-2-1.7-3.1-2.4-4.8c3.6-3.3,9.1-3.4,12.2-7.5c2.9,0.3,4.8-3,7.9-2.2c0,0,0.3,0.3,0.3,0.3
			c-0.8,1.9-2.1,3.5-3.6,4.8c-2.1-0.7-2.9,1-4.1,2.1c0,0,0,0.1,0,0.1C108.8,183.1,105.2,185.4,102.1,188.3z"/>
		<path class="st17" d="M140,163.9c0-1.2,0-2.5-1.3-3.1c0.5-1.2,2.3-1.3,2.4-2.8c0,0-0.1,0.1-0.1,0.1c4.3-1.3,7-5.1,11.1-6.8
			c1.1,1.3,2.3,2.6,1.9,4.6c-3.7,3.1-8.9,3.7-12.1,7.6C141.2,163.6,140.6,163.8,140,163.9z"/>
		<path class="st28" d="M144.2,187.9c2.1-0.3,4-0.9,3.8-3.7c3.9,1.9,7.7,3.9,11.1,6.7c-2.7,0-3.7,3.3-6.4,3.2
			C149.6,192.5,146.8,190.3,144.2,187.9z"/>
		<path class="st18" d="M123,140c-1,0-2,0-3,0c0.6-3-1.6-5.3-2-8c0-2.6,0-5.3,0-7.9c2.6,1.2,3.1,4.1,4.9,5.9
			C122.9,133.3,123,136.7,123,140z"/>
		<path class="st7" d="M119.9,173.9c-3.1-0.9-5,2.5-7.9,2.2c-3.3,0.5-6.7,0.9-11.5,1.6c4.2-3.3,8.4-2.6,11.5-4.5
			c1.9-0.5,3.8-0.9,5.7-1.4C119.5,171.2,119.8,172.3,119.9,173.9z"/>
		<path class="st28" d="M143.2,179c1.8,0,2.1-1.6,2.8-2.7c3.5,0.5,6.9,1.2,10.1,2.6c-1.6,0.9-3.6,1.2-4.1,3.3c-3.2,0-5.6-2.9-9-2.2
			c0,0,0,0,0,0C143,179.7,143.1,179.3,143.2,179z"/>
		<path class="st26" d="M123.1,186.7c0-1.6,0-3.2,0-6c2.3,2.5,1.8,4.4,1.4,6.3C124.1,186.9,123.6,186.8,123.1,186.7z"/>
		<path class="st26" d="M124.9,189.5c0,0.7,0,1.4,0,2.1C124.4,190.9,124.4,190.2,124.9,189.5z"/>
		<path class="st1" d="M131.4,159.2c-0.2-0.1-0.4-0.1-0.7-0.2c0.4-0.7,0.8-1.3,1.3-2C131.8,157.7,131.6,158.5,131.4,159.2z"/>
		<path class="st26" d="M144.1,169.9c-0.4,0-0.8,0-1.1,0C143.3,169.9,143.7,169.9,144.1,169.9z"/>
		<path class="st21" d="M146.2,193.9c-0.4-0.4-0.7-0.8-1.1-1.1C145.4,193.2,145.8,193.5,146.2,193.9z"/>
		<path class="st21" d="M147.2,194.9c-0.4-0.4-0.7-0.7-1.1-1.1C146.5,194.2,146.8,194.5,147.2,194.9z"/>
		<path class="st21" d="M148.2,195.9c-0.4-0.4-0.7-0.7-1.1-1.1C147.5,195.2,147.8,195.5,148.2,195.9z"/>
		<path class="st21" d="M143.1,200c0.3,0.4,0.6,0.8,0.9,1.1C143.6,200.7,143.3,200.4,143.1,200z"/>
		<path class="st11" d="M126.3,135c0.1,0.2,0.2,0.5,0.2,0.7c0,0.1-0.2,0.2-0.3,0.2C126.3,135.7,126.3,135.3,126.3,135z"/>
		<path class="st9" d="M125,175.9c1.2,0.8,0.9,2,0.9,3.1c-2.5,1.4-3.2,0.3-3-2.1c0-0.3,0-0.6,0.1-0.9
			C123.8,176,124.4,175.9,125,175.9z"/>
		<path class="st12" d="M125,175.9c-0.6,0-1.3,0.1-1.9,0.1c0.3-0.3,0.6-0.7,0.9-1C124.3,175.3,124.7,175.6,125,175.9z"/>
		<path class="st1" d="M128.8,158.9c-0.1,0.3-0.2,0.7-0.5,0.8c-0.2,0.1-0.5-0.2-0.8-0.3c0.2-0.3,0.3-0.6,0.5-0.7
			C128.2,158.6,128.5,158.8,128.8,158.9z"/>
		<path class="st1" d="M130.1,161c-0.2,1.1,0.1,2.3-1.1,3.1C129,162.9,128.7,161.7,130.1,161z"/>
	</g>
</g>
</svg>
